<mxfile host="app.diagrams.net" agent="Mozilla/5.0 (Windows NT 10.0; Win64; x64) AppleWebKit/537.36 (KHTML, like Gecko) Chrome/130.0.0.0 Safari/537.36" version="24.8.4">
  <diagram name="Страница — 1" id="fM2yl3oWrnEDQcO48-69">
    <mxGraphModel dx="4412" dy="3119" grid="1" gridSize="10" guides="1" tooltips="1" connect="1" arrows="1" fold="1" page="1" pageScale="1" pageWidth="827" pageHeight="1169" math="0" shadow="0">
      <root>
        <mxCell id="0" />
        <mxCell id="1" parent="0" />
        <mxCell id="SJhDcYYH-gm3UErSaV7a-1" value="Компьютерная мышь" style="rounded=0;whiteSpace=wrap;html=1;" parent="1" vertex="1">
          <mxGeometry x="360" y="340" width="120" height="80" as="geometry" />
        </mxCell>
        <mxCell id="SJhDcYYH-gm3UErSaV7a-2" value="Beta Testing" style="rounded=0;whiteSpace=wrap;html=1;" parent="1" vertex="1">
          <mxGeometry x="40" y="-80" width="120" height="60" as="geometry" />
        </mxCell>
        <mxCell id="SJhDcYYH-gm3UErSaV7a-3" value="Automated Testing" style="rounded=0;whiteSpace=wrap;html=1;" parent="1" vertex="1">
          <mxGeometry x="40" y="60" width="120" height="60" as="geometry" />
        </mxCell>
        <mxCell id="SJhDcYYH-gm3UErSaV7a-4" value="Validation" style="rounded=0;whiteSpace=wrap;html=1;" parent="1" vertex="1">
          <mxGeometry x="40" y="200" width="120" height="60" as="geometry" />
        </mxCell>
        <mxCell id="SJhDcYYH-gm3UErSaV7a-5" value="Verification" style="rounded=0;whiteSpace=wrap;html=1;" parent="1" vertex="1">
          <mxGeometry x="40" y="470" width="120" height="60" as="geometry" />
        </mxCell>
        <mxCell id="SJhDcYYH-gm3UErSaV7a-6" value="Security Testing" style="rounded=0;whiteSpace=wrap;html=1;" parent="1" vertex="1">
          <mxGeometry x="40" y="740" width="120" height="60" as="geometry" />
        </mxCell>
        <mxCell id="SJhDcYYH-gm3UErSaV7a-7" value="Negative Testing" style="rounded=0;whiteSpace=wrap;html=1;" parent="1" vertex="1">
          <mxGeometry x="40" y="1010" width="120" height="60" as="geometry" />
        </mxCell>
        <mxCell id="SJhDcYYH-gm3UErSaV7a-8" value="Stress Testing" style="rounded=0;whiteSpace=wrap;html=1;" parent="1" vertex="1">
          <mxGeometry x="40" y="1290" width="120" height="60" as="geometry" />
        </mxCell>
        <mxCell id="SJhDcYYH-gm3UErSaV7a-10" value="Black Box Testing" style="rounded=0;whiteSpace=wrap;html=1;" parent="1" vertex="1">
          <mxGeometry x="680" y="-80" width="120" height="60" as="geometry" />
        </mxCell>
        <mxCell id="SJhDcYYH-gm3UErSaV7a-11" value="Functional Testing" style="rounded=0;whiteSpace=wrap;html=1;" parent="1" vertex="1">
          <mxGeometry x="680" y="60" width="120" height="60" as="geometry" />
        </mxCell>
        <mxCell id="SJhDcYYH-gm3UErSaV7a-12" value="Usability Testing" style="rounded=0;whiteSpace=wrap;html=1;" parent="1" vertex="1">
          <mxGeometry x="680" y="200" width="120" height="60" as="geometry" />
        </mxCell>
        <mxCell id="SJhDcYYH-gm3UErSaV7a-23" value="" style="endArrow=none;html=1;rounded=0;exitX=1;exitY=0.5;exitDx=0;exitDy=0;entryX=0;entryY=0.5;entryDx=0;entryDy=0;" parent="1" source="SJhDcYYH-gm3UErSaV7a-2" target="SJhDcYYH-gm3UErSaV7a-1" edge="1">
          <mxGeometry width="50" height="50" relative="1" as="geometry">
            <mxPoint x="250" y="40" as="sourcePoint" />
            <mxPoint x="300" y="-10" as="targetPoint" />
            <Array as="points">
              <mxPoint x="240" y="-50" />
              <mxPoint x="240" y="380" />
            </Array>
          </mxGeometry>
        </mxCell>
        <mxCell id="SJhDcYYH-gm3UErSaV7a-26" value="" style="endArrow=none;html=1;rounded=0;entryX=1;entryY=0.5;entryDx=0;entryDy=0;exitX=0;exitY=0.5;exitDx=0;exitDy=0;" parent="1" source="SJhDcYYH-gm3UErSaV7a-1" target="SJhDcYYH-gm3UErSaV7a-3" edge="1">
          <mxGeometry width="50" height="50" relative="1" as="geometry">
            <mxPoint x="-80" y="190" as="sourcePoint" />
            <mxPoint x="-30" y="140" as="targetPoint" />
            <Array as="points">
              <mxPoint x="240" y="380" />
              <mxPoint x="240" y="90" />
            </Array>
          </mxGeometry>
        </mxCell>
        <mxCell id="SJhDcYYH-gm3UErSaV7a-30" value="" style="endArrow=none;html=1;rounded=0;exitX=1;exitY=0.5;exitDx=0;exitDy=0;entryX=0;entryY=0.5;entryDx=0;entryDy=0;" parent="1" source="SJhDcYYH-gm3UErSaV7a-4" target="SJhDcYYH-gm3UErSaV7a-1" edge="1">
          <mxGeometry width="50" height="50" relative="1" as="geometry">
            <mxPoint x="220" y="460" as="sourcePoint" />
            <mxPoint x="270" y="410" as="targetPoint" />
            <Array as="points">
              <mxPoint x="240" y="230" />
              <mxPoint x="240" y="380" />
            </Array>
          </mxGeometry>
        </mxCell>
        <mxCell id="SJhDcYYH-gm3UErSaV7a-36" value="" style="endArrow=none;html=1;rounded=0;entryX=0;entryY=0.5;entryDx=0;entryDy=0;exitX=1;exitY=0.5;exitDx=0;exitDy=0;" parent="1" source="SJhDcYYH-gm3UErSaV7a-5" target="SJhDcYYH-gm3UErSaV7a-1" edge="1">
          <mxGeometry width="50" height="50" relative="1" as="geometry">
            <mxPoint x="220" y="530" as="sourcePoint" />
            <mxPoint x="270" y="480" as="targetPoint" />
            <Array as="points">
              <mxPoint x="240" y="500" />
              <mxPoint x="240" y="380" />
            </Array>
          </mxGeometry>
        </mxCell>
        <mxCell id="SJhDcYYH-gm3UErSaV7a-41" value="" style="endArrow=none;html=1;rounded=0;entryX=0;entryY=0.5;entryDx=0;entryDy=0;exitX=1;exitY=0.5;exitDx=0;exitDy=0;" parent="1" source="SJhDcYYH-gm3UErSaV7a-6" target="SJhDcYYH-gm3UErSaV7a-1" edge="1">
          <mxGeometry width="50" height="50" relative="1" as="geometry">
            <mxPoint x="240" y="640" as="sourcePoint" />
            <mxPoint x="290" y="590" as="targetPoint" />
            <Array as="points">
              <mxPoint x="240" y="770" />
              <mxPoint x="240" y="380" />
            </Array>
          </mxGeometry>
        </mxCell>
        <mxCell id="SJhDcYYH-gm3UErSaV7a-46" value="" style="endArrow=none;html=1;rounded=0;exitX=1;exitY=0.5;exitDx=0;exitDy=0;entryX=0;entryY=0.5;entryDx=0;entryDy=0;" parent="1" source="SJhDcYYH-gm3UErSaV7a-7" target="SJhDcYYH-gm3UErSaV7a-1" edge="1">
          <mxGeometry width="50" height="50" relative="1" as="geometry">
            <mxPoint x="-50" y="990" as="sourcePoint" />
            <mxPoint y="940" as="targetPoint" />
            <Array as="points">
              <mxPoint x="240" y="1040" />
              <mxPoint x="240" y="380" />
            </Array>
          </mxGeometry>
        </mxCell>
        <mxCell id="SJhDcYYH-gm3UErSaV7a-52" value="" style="endArrow=none;html=1;rounded=0;exitX=1;exitY=0.5;exitDx=0;exitDy=0;entryX=0;entryY=0.5;entryDx=0;entryDy=0;" parent="1" source="SJhDcYYH-gm3UErSaV7a-8" target="SJhDcYYH-gm3UErSaV7a-1" edge="1">
          <mxGeometry width="50" height="50" relative="1" as="geometry">
            <mxPoint x="250" y="1310" as="sourcePoint" />
            <mxPoint x="300" y="1260" as="targetPoint" />
            <Array as="points">
              <mxPoint x="240" y="1320" />
              <mxPoint x="240" y="380" />
            </Array>
          </mxGeometry>
        </mxCell>
        <mxCell id="SJhDcYYH-gm3UErSaV7a-68" value="" style="endArrow=none;html=1;rounded=0;exitX=1;exitY=0.5;exitDx=0;exitDy=0;entryX=0;entryY=0.5;entryDx=0;entryDy=0;" parent="1" source="SJhDcYYH-gm3UErSaV7a-1" target="SJhDcYYH-gm3UErSaV7a-10" edge="1">
          <mxGeometry width="50" height="50" relative="1" as="geometry">
            <mxPoint x="520" y="430" as="sourcePoint" />
            <mxPoint x="570" y="380" as="targetPoint" />
            <Array as="points">
              <mxPoint x="600" y="380" />
              <mxPoint x="600" y="-50" />
            </Array>
          </mxGeometry>
        </mxCell>
        <mxCell id="SJhDcYYH-gm3UErSaV7a-73" value="" style="endArrow=none;html=1;rounded=0;entryX=0;entryY=0.5;entryDx=0;entryDy=0;" parent="1" target="SJhDcYYH-gm3UErSaV7a-11" edge="1">
          <mxGeometry width="50" height="50" relative="1" as="geometry">
            <mxPoint x="600" y="90" as="sourcePoint" />
            <mxPoint x="980" y="330" as="targetPoint" />
          </mxGeometry>
        </mxCell>
        <mxCell id="SJhDcYYH-gm3UErSaV7a-74" value="Комфортно ли лежит в руке?" style="rounded=1;whiteSpace=wrap;html=1;" parent="1" vertex="1">
          <mxGeometry x="880" y="170" width="220" height="120" as="geometry" />
        </mxCell>
        <mxCell id="SJhDcYYH-gm3UErSaV7a-75" value="" style="endArrow=none;html=1;rounded=0;entryX=0;entryY=0.5;entryDx=0;entryDy=0;exitX=1;exitY=0.5;exitDx=0;exitDy=0;" parent="1" source="SJhDcYYH-gm3UErSaV7a-12" target="SJhDcYYH-gm3UErSaV7a-74" edge="1">
          <mxGeometry width="50" height="50" relative="1" as="geometry">
            <mxPoint x="830" y="290" as="sourcePoint" />
            <mxPoint x="880" y="240" as="targetPoint" />
          </mxGeometry>
        </mxCell>
        <mxCell id="SJhDcYYH-gm3UErSaV7a-76" value="" style="endArrow=none;html=1;rounded=0;entryX=0;entryY=0.5;entryDx=0;entryDy=0;" parent="1" target="SJhDcYYH-gm3UErSaV7a-12" edge="1">
          <mxGeometry width="50" height="50" relative="1" as="geometry">
            <mxPoint x="600" y="230" as="sourcePoint" />
            <mxPoint x="680" y="240" as="targetPoint" />
          </mxGeometry>
        </mxCell>
        <mxCell id="SJhDcYYH-gm3UErSaV7a-77" value="Удобно нажимаются кнопки?" style="rounded=1;whiteSpace=wrap;html=1;" parent="1" vertex="1">
          <mxGeometry x="880" y="300" width="220" height="120" as="geometry" />
        </mxCell>
        <mxCell id="SJhDcYYH-gm3UErSaV7a-78" value="" style="endArrow=none;html=1;rounded=0;entryX=1;entryY=0.5;entryDx=0;entryDy=0;exitX=0;exitY=0.5;exitDx=0;exitDy=0;" parent="1" source="SJhDcYYH-gm3UErSaV7a-77" target="SJhDcYYH-gm3UErSaV7a-12" edge="1">
          <mxGeometry width="50" height="50" relative="1" as="geometry">
            <mxPoint x="800" y="350" as="sourcePoint" />
            <mxPoint x="850" y="300" as="targetPoint" />
            <Array as="points">
              <mxPoint x="840" y="360" />
              <mxPoint x="840" y="230" />
            </Array>
          </mxGeometry>
        </mxCell>
        <mxCell id="SJhDcYYH-gm3UErSaV7a-102" value="Удобно ли её перемещать?" style="rounded=1;whiteSpace=wrap;html=1;" parent="1" vertex="1">
          <mxGeometry x="880" y="450" width="220" height="120" as="geometry" />
        </mxCell>
        <mxCell id="SJhDcYYH-gm3UErSaV7a-103" value="" style="endArrow=none;html=1;rounded=0;entryX=0;entryY=0.5;entryDx=0;entryDy=0;" parent="1" target="SJhDcYYH-gm3UErSaV7a-102" edge="1">
          <mxGeometry width="50" height="50" relative="1" as="geometry">
            <mxPoint x="840" y="230" as="sourcePoint" />
            <mxPoint x="390" y="410" as="targetPoint" />
            <Array as="points">
              <mxPoint x="840" y="510" />
            </Array>
          </mxGeometry>
        </mxCell>
        <mxCell id="SJhDcYYH-gm3UErSaV7a-104" value="Работает ли?" style="rounded=1;whiteSpace=wrap;html=1;" parent="1" vertex="1">
          <mxGeometry x="880" y="30" width="220" height="120" as="geometry" />
        </mxCell>
        <mxCell id="SJhDcYYH-gm3UErSaV7a-105" value="" style="endArrow=none;html=1;rounded=0;entryX=0;entryY=0.5;entryDx=0;entryDy=0;exitX=1;exitY=0.5;exitDx=0;exitDy=0;" parent="1" source="SJhDcYYH-gm3UErSaV7a-11" target="SJhDcYYH-gm3UErSaV7a-104" edge="1">
          <mxGeometry width="50" height="50" relative="1" as="geometry">
            <mxPoint x="730" y="320" as="sourcePoint" />
            <mxPoint x="780" y="270" as="targetPoint" />
          </mxGeometry>
        </mxCell>
        <mxCell id="SJhDcYYH-gm3UErSaV7a-106" value="" style="endArrow=none;html=1;rounded=0;exitX=1;exitY=0.5;exitDx=0;exitDy=0;entryX=0;entryY=0.5;entryDx=0;entryDy=0;" parent="1" source="SJhDcYYH-gm3UErSaV7a-104" target="SJhDcYYH-gm3UErSaV7a-107" edge="1">
          <mxGeometry width="50" height="50" relative="1" as="geometry">
            <mxPoint x="1130" y="150" as="sourcePoint" />
            <mxPoint x="1180" y="90" as="targetPoint" />
          </mxGeometry>
        </mxCell>
        <mxCell id="SJhDcYYH-gm3UErSaV7a-107" value="Работают ли кнопки?" style="rounded=1;whiteSpace=wrap;html=1;" parent="1" vertex="1">
          <mxGeometry x="1190" y="30" width="220" height="120" as="geometry" />
        </mxCell>
        <mxCell id="SJhDcYYH-gm3UErSaV7a-108" value="Compatability Testing" style="rounded=0;whiteSpace=wrap;html=1;" parent="1" vertex="1">
          <mxGeometry x="680" y="680" width="120" height="60" as="geometry" />
        </mxCell>
        <mxCell id="SJhDcYYH-gm3UErSaV7a-109" value="Perfomence Testing" style="rounded=0;whiteSpace=wrap;html=1;" parent="1" vertex="1">
          <mxGeometry x="680" y="850" width="120" height="60" as="geometry" />
        </mxCell>
        <mxCell id="SJhDcYYH-gm3UErSaV7a-110" value="Perfomence Testing" style="rounded=0;whiteSpace=wrap;html=1;" parent="1" vertex="1">
          <mxGeometry x="680" y="980" width="120" height="60" as="geometry" />
        </mxCell>
        <mxCell id="SJhDcYYH-gm3UErSaV7a-111" value="Component Testing" style="rounded=0;whiteSpace=wrap;html=1;" parent="1" vertex="1">
          <mxGeometry x="680" y="1109" width="120" height="60" as="geometry" />
        </mxCell>
        <mxCell id="SJhDcYYH-gm3UErSaV7a-112" value="" style="endArrow=none;html=1;rounded=0;exitX=1;exitY=0.5;exitDx=0;exitDy=0;entryX=0;entryY=0.5;entryDx=0;entryDy=0;" parent="1" source="SJhDcYYH-gm3UErSaV7a-1" target="SJhDcYYH-gm3UErSaV7a-108" edge="1">
          <mxGeometry width="50" height="50" relative="1" as="geometry">
            <mxPoint x="960" y="790" as="sourcePoint" />
            <mxPoint x="1010" y="740" as="targetPoint" />
            <Array as="points">
              <mxPoint x="600" y="380" />
              <mxPoint x="600" y="710" />
            </Array>
          </mxGeometry>
        </mxCell>
        <mxCell id="SJhDcYYH-gm3UErSaV7a-113" value="" style="endArrow=none;html=1;rounded=0;entryX=0;entryY=0.5;entryDx=0;entryDy=0;" parent="1" target="SJhDcYYH-gm3UErSaV7a-109" edge="1">
          <mxGeometry width="50" height="50" relative="1" as="geometry">
            <mxPoint x="600" y="710" as="sourcePoint" />
            <mxPoint x="590" y="820" as="targetPoint" />
            <Array as="points">
              <mxPoint x="600" y="880" />
            </Array>
          </mxGeometry>
        </mxCell>
        <mxCell id="SJhDcYYH-gm3UErSaV7a-114" value="" style="endArrow=none;html=1;rounded=0;entryX=0;entryY=0.5;entryDx=0;entryDy=0;" parent="1" target="SJhDcYYH-gm3UErSaV7a-110" edge="1">
          <mxGeometry width="50" height="50" relative="1" as="geometry">
            <mxPoint x="600" y="880" as="sourcePoint" />
            <mxPoint x="470" y="1040" as="targetPoint" />
            <Array as="points">
              <mxPoint x="600" y="1010" />
            </Array>
          </mxGeometry>
        </mxCell>
        <mxCell id="SJhDcYYH-gm3UErSaV7a-115" value="" style="endArrow=none;html=1;rounded=0;entryX=0;entryY=0.75;entryDx=0;entryDy=0;" parent="1" target="SJhDcYYH-gm3UErSaV7a-111" edge="1">
          <mxGeometry width="50" height="50" relative="1" as="geometry">
            <mxPoint x="600" y="1010" as="sourcePoint" />
            <mxPoint x="640" y="1150" as="targetPoint" />
            <Array as="points">
              <mxPoint x="600" y="1154" />
            </Array>
          </mxGeometry>
        </mxCell>
        <mxCell id="SJhDcYYH-gm3UErSaV7a-116" value="Сколько будет работать до того, как появится двойное нажатие на кнопках?" style="rounded=1;whiteSpace=wrap;html=1;" parent="1" vertex="1">
          <mxGeometry x="910" y="820" width="220" height="120" as="geometry" />
        </mxCell>
        <mxCell id="SJhDcYYH-gm3UErSaV7a-117" value="" style="endArrow=none;html=1;rounded=0;entryX=0;entryY=0.5;entryDx=0;entryDy=0;exitX=1;exitY=0.5;exitDx=0;exitDy=0;" parent="1" source="SJhDcYYH-gm3UErSaV7a-109" target="SJhDcYYH-gm3UErSaV7a-116" edge="1">
          <mxGeometry width="50" height="50" relative="1" as="geometry">
            <mxPoint x="990" y="1080" as="sourcePoint" />
            <mxPoint x="1040" y="1030" as="targetPoint" />
          </mxGeometry>
        </mxCell>
        <mxCell id="SJhDcYYH-gm3UErSaV7a-118" value="Совместимость с разными ОС" style="rounded=1;whiteSpace=wrap;html=1;" parent="1" vertex="1">
          <mxGeometry x="900" y="570" width="220" height="120" as="geometry" />
        </mxCell>
        <mxCell id="SJhDcYYH-gm3UErSaV7a-119" value="Друзья пробуют, удобно ли?" style="rounded=1;whiteSpace=wrap;html=1;" parent="1" vertex="1">
          <mxGeometry x="-320" y="-110" width="220" height="120" as="geometry" />
        </mxCell>
        <mxCell id="SJhDcYYH-gm3UErSaV7a-120" value="" style="endArrow=none;html=1;rounded=0;entryX=0;entryY=0.5;entryDx=0;entryDy=0;exitX=1;exitY=0.5;exitDx=0;exitDy=0;" parent="1" source="SJhDcYYH-gm3UErSaV7a-119" target="SJhDcYYH-gm3UErSaV7a-2" edge="1">
          <mxGeometry width="50" height="50" relative="1" as="geometry">
            <mxPoint x="-50" y="20" as="sourcePoint" />
            <mxPoint y="-30" as="targetPoint" />
          </mxGeometry>
        </mxCell>
        <mxCell id="SJhDcYYH-gm3UErSaV7a-121" value="Сломать" style="rounded=1;whiteSpace=wrap;html=1;" parent="1" vertex="1">
          <mxGeometry x="-290" y="910" width="220" height="120" as="geometry" />
        </mxCell>
        <mxCell id="SJhDcYYH-gm3UErSaV7a-122" value="" style="endArrow=none;html=1;rounded=0;entryX=0;entryY=0.5;entryDx=0;entryDy=0;exitX=1;exitY=0.5;exitDx=0;exitDy=0;" parent="1" source="SJhDcYYH-gm3UErSaV7a-121" target="SJhDcYYH-gm3UErSaV7a-7" edge="1">
          <mxGeometry width="50" height="50" relative="1" as="geometry">
            <mxPoint x="-30" y="1080" as="sourcePoint" />
            <mxPoint x="20" y="1030" as="targetPoint" />
          </mxGeometry>
        </mxCell>
        <mxCell id="SJhDcYYH-gm3UErSaV7a-123" value="Уронить" style="rounded=1;whiteSpace=wrap;html=1;" parent="1" vertex="1">
          <mxGeometry x="-290" y="1260" width="220" height="120" as="geometry" />
        </mxCell>
        <mxCell id="SJhDcYYH-gm3UErSaV7a-126" value="" style="endArrow=none;html=1;rounded=0;entryX=0;entryY=0.5;entryDx=0;entryDy=0;exitX=1;exitY=0.5;exitDx=0;exitDy=0;" parent="1" source="SJhDcYYH-gm3UErSaV7a-108" target="SJhDcYYH-gm3UErSaV7a-118" edge="1">
          <mxGeometry width="50" height="50" relative="1" as="geometry">
            <mxPoint x="820" y="760" as="sourcePoint" />
            <mxPoint x="870" y="710" as="targetPoint" />
          </mxGeometry>
        </mxCell>
        <mxCell id="SJhDcYYH-gm3UErSaV7a-127" value="" style="endArrow=none;html=1;rounded=0;entryX=0;entryY=0.5;entryDx=0;entryDy=0;exitX=1;exitY=0.5;exitDx=0;exitDy=0;" parent="1" source="SJhDcYYH-gm3UErSaV7a-123" target="SJhDcYYH-gm3UErSaV7a-8" edge="1">
          <mxGeometry width="50" height="50" relative="1" as="geometry">
            <mxPoint x="-80" y="1370" as="sourcePoint" />
            <mxPoint x="-30" y="1320" as="targetPoint" />
          </mxGeometry>
        </mxCell>
        <mxCell id="SJhDcYYH-gm3UErSaV7a-128" value="Уронить" style="rounded=1;whiteSpace=wrap;html=1;" parent="1" vertex="1">
          <mxGeometry x="-290" y="1260" width="220" height="120" as="geometry" />
        </mxCell>
        <mxCell id="SJhDcYYH-gm3UErSaV7a-129" value="Согнуть провод" style="rounded=1;whiteSpace=wrap;html=1;" parent="1" vertex="1">
          <mxGeometry x="-290" y="1410" width="220" height="120" as="geometry" />
        </mxCell>
        <mxCell id="SJhDcYYH-gm3UErSaV7a-130" value="" style="endArrow=none;html=1;rounded=0;exitX=1;exitY=0.5;exitDx=0;exitDy=0;entryX=0.594;entryY=0.992;entryDx=0;entryDy=0;entryPerimeter=0;" parent="1" source="SJhDcYYH-gm3UErSaV7a-129" target="SJhDcYYH-gm3UErSaV7a-8" edge="1">
          <mxGeometry width="50" height="50" relative="1" as="geometry">
            <mxPoint x="430" y="1640" as="sourcePoint" />
            <mxPoint x="480" y="1590" as="targetPoint" />
            <Array as="points">
              <mxPoint x="110" y="1470" />
            </Array>
          </mxGeometry>
        </mxCell>
        <mxCell id="SJhDcYYH-gm3UErSaV7a-131" value="Не нанесёт какой-либо вред пользователю?" style="rounded=1;whiteSpace=wrap;html=1;" parent="1" vertex="1">
          <mxGeometry x="-300" y="710" width="220" height="120" as="geometry" />
        </mxCell>
        <mxCell id="SJhDcYYH-gm3UErSaV7a-132" value="" style="endArrow=none;html=1;rounded=0;entryX=0;entryY=0.5;entryDx=0;entryDy=0;exitX=1;exitY=0.5;exitDx=0;exitDy=0;" parent="1" source="SJhDcYYH-gm3UErSaV7a-131" target="SJhDcYYH-gm3UErSaV7a-6" edge="1">
          <mxGeometry width="50" height="50" relative="1" as="geometry">
            <mxPoint x="-20" y="820" as="sourcePoint" />
            <mxPoint x="30" y="770" as="targetPoint" />
          </mxGeometry>
        </mxCell>
        <mxCell id="SJhDcYYH-gm3UErSaV7a-133" value="Верно ли срабатывает?" style="rounded=1;whiteSpace=wrap;html=1;" parent="1" vertex="1">
          <mxGeometry x="-320" y="170" width="220" height="120" as="geometry" />
        </mxCell>
        <mxCell id="SJhDcYYH-gm3UErSaV7a-134" value="" style="rounded=1;whiteSpace=wrap;html=1;" parent="1" vertex="1">
          <mxGeometry x="-320" y="30" width="220" height="120" as="geometry" />
        </mxCell>
        <mxCell id="SJhDcYYH-gm3UErSaV7a-135" value="" style="endArrow=none;html=1;rounded=0;entryX=0;entryY=0.5;entryDx=0;entryDy=0;exitX=1;exitY=0.5;exitDx=0;exitDy=0;" parent="1" source="SJhDcYYH-gm3UErSaV7a-134" target="SJhDcYYH-gm3UErSaV7a-3" edge="1">
          <mxGeometry width="50" height="50" relative="1" as="geometry">
            <mxPoint x="-50" y="130" as="sourcePoint" />
            <mxPoint y="80" as="targetPoint" />
          </mxGeometry>
        </mxCell>
        <mxCell id="SJhDcYYH-gm3UErSaV7a-136" value="" style="endArrow=none;html=1;rounded=0;entryX=0;entryY=0.5;entryDx=0;entryDy=0;exitX=1;exitY=0.5;exitDx=0;exitDy=0;" parent="1" source="SJhDcYYH-gm3UErSaV7a-133" target="SJhDcYYH-gm3UErSaV7a-4" edge="1">
          <mxGeometry width="50" height="50" relative="1" as="geometry">
            <mxPoint x="-40" y="280" as="sourcePoint" />
            <mxPoint x="10" y="230" as="targetPoint" />
          </mxGeometry>
        </mxCell>
        <mxCell id="SJhDcYYH-gm3UErSaV7a-139" value="Длина, толщина" style="rounded=1;whiteSpace=wrap;html=1;" parent="1" vertex="1">
          <mxGeometry x="-310" y="480" width="220" height="120" as="geometry" />
        </mxCell>
        <mxCell id="SJhDcYYH-gm3UErSaV7a-140" value="" style="endArrow=none;html=1;rounded=0;exitX=1;exitY=0.5;exitDx=0;exitDy=0;entryX=0;entryY=0.5;entryDx=0;entryDy=0;" parent="1" source="SJhDcYYH-gm3UErSaV7a-139" target="SJhDcYYH-gm3UErSaV7a-5" edge="1">
          <mxGeometry width="50" height="50" relative="1" as="geometry">
            <mxPoint x="550" y="460" as="sourcePoint" />
            <mxPoint x="600" y="410" as="targetPoint" />
            <Array as="points">
              <mxPoint x="-20" y="540" />
              <mxPoint x="-20" y="500" />
            </Array>
          </mxGeometry>
        </mxCell>
        <mxCell id="SJhDcYYH-gm3UErSaV7a-141" value="Проверка срыва сенсора при быстром движении" style="rounded=1;whiteSpace=wrap;html=1;" parent="1" vertex="1">
          <mxGeometry x="-290" y="1070" width="220" height="120" as="geometry" />
        </mxCell>
        <mxCell id="SJhDcYYH-gm3UErSaV7a-142" value="" style="endArrow=none;html=1;rounded=0;entryX=0;entryY=0.75;entryDx=0;entryDy=0;exitX=1;exitY=0.5;exitDx=0;exitDy=0;" parent="1" source="SJhDcYYH-gm3UErSaV7a-141" target="SJhDcYYH-gm3UErSaV7a-7" edge="1">
          <mxGeometry width="50" height="50" relative="1" as="geometry">
            <mxPoint x="-40" y="1160" as="sourcePoint" />
            <mxPoint x="10" y="1110" as="targetPoint" />
          </mxGeometry>
        </mxCell>
        <mxCell id="SJhDcYYH-gm3UErSaV7a-143" value="" style="endArrow=none;html=1;rounded=0;exitX=0;exitY=0.5;exitDx=0;exitDy=0;" parent="1" source="SJhDcYYH-gm3UErSaV7a-146" edge="1">
          <mxGeometry width="50" height="50" relative="1" as="geometry">
            <mxPoint x="190" y="1510" as="sourcePoint" />
            <mxPoint x="600" y="1150" as="targetPoint" />
            <Array as="points">
              <mxPoint x="600" y="1460" />
            </Array>
          </mxGeometry>
        </mxCell>
        <mxCell id="SJhDcYYH-gm3UErSaV7a-144" value="Проверка отдельных кнопок" style="rounded=1;whiteSpace=wrap;html=1;" parent="1" vertex="1">
          <mxGeometry x="910" y="1090" width="220" height="120" as="geometry" />
        </mxCell>
        <mxCell id="SJhDcYYH-gm3UErSaV7a-145" value="Работоспособность колёсика" style="rounded=1;whiteSpace=wrap;html=1;" parent="1" vertex="1">
          <mxGeometry x="910" y="1240" width="220" height="120" as="geometry" />
        </mxCell>
        <mxCell id="SJhDcYYH-gm3UErSaV7a-146" value="Integration Testing" style="rounded=0;whiteSpace=wrap;html=1;" parent="1" vertex="1">
          <mxGeometry x="680" y="1430" width="120" height="60" as="geometry" />
        </mxCell>
        <mxCell id="SJhDcYYH-gm3UErSaV7a-147" value="Совместимость с ПО" style="rounded=1;whiteSpace=wrap;html=1;" parent="1" vertex="1">
          <mxGeometry x="910" y="1410" width="220" height="120" as="geometry" />
        </mxCell>
        <mxCell id="SJhDcYYH-gm3UErSaV7a-148" value="Отклик в приложениях и играх" style="rounded=1;whiteSpace=wrap;html=1;" parent="1" vertex="1">
          <mxGeometry x="910" y="1560" width="220" height="120" as="geometry" />
        </mxCell>
        <mxCell id="SJhDcYYH-gm3UErSaV7a-149" value="Скорость отклика" style="rounded=1;whiteSpace=wrap;html=1;" parent="1" vertex="1">
          <mxGeometry x="910" y="950" width="220" height="120" as="geometry" />
        </mxCell>
        <mxCell id="SJhDcYYH-gm3UErSaV7a-150" value="Совместимость с разными ОС" style="rounded=1;whiteSpace=wrap;html=1;" parent="1" vertex="1">
          <mxGeometry x="900" y="570" width="220" height="120" as="geometry" />
        </mxCell>
        <mxCell id="SJhDcYYH-gm3UErSaV7a-151" value="Совместимость с разными устройствами" style="rounded=1;whiteSpace=wrap;html=1;" parent="1" vertex="1">
          <mxGeometry x="900" y="690" width="220" height="120" as="geometry" />
        </mxCell>
        <mxCell id="SJhDcYYH-gm3UErSaV7a-152" value="" style="endArrow=none;html=1;rounded=0;entryX=0;entryY=0.5;entryDx=0;entryDy=0;exitX=1;exitY=0.5;exitDx=0;exitDy=0;" parent="1" source="SJhDcYYH-gm3UErSaV7a-110" target="SJhDcYYH-gm3UErSaV7a-149" edge="1">
          <mxGeometry width="50" height="50" relative="1" as="geometry">
            <mxPoint x="830" y="1140" as="sourcePoint" />
            <mxPoint x="880" y="1090" as="targetPoint" />
          </mxGeometry>
        </mxCell>
        <mxCell id="SJhDcYYH-gm3UErSaV7a-153" value="" style="endArrow=none;html=1;rounded=0;entryX=0;entryY=0.5;entryDx=0;entryDy=0;exitX=1;exitY=0.5;exitDx=0;exitDy=0;" parent="1" source="SJhDcYYH-gm3UErSaV7a-111" target="SJhDcYYH-gm3UErSaV7a-144" edge="1">
          <mxGeometry width="50" height="50" relative="1" as="geometry">
            <mxPoint x="820" y="1230" as="sourcePoint" />
            <mxPoint x="870" y="1180" as="targetPoint" />
          </mxGeometry>
        </mxCell>
        <mxCell id="SJhDcYYH-gm3UErSaV7a-154" value="" style="endArrow=none;html=1;rounded=0;entryX=0;entryY=0.5;entryDx=0;entryDy=0;exitX=0.5;exitY=1;exitDx=0;exitDy=0;" parent="1" source="SJhDcYYH-gm3UErSaV7a-111" target="SJhDcYYH-gm3UErSaV7a-145" edge="1">
          <mxGeometry width="50" height="50" relative="1" as="geometry">
            <mxPoint x="820" y="1290" as="sourcePoint" />
            <mxPoint x="870" y="1240" as="targetPoint" />
          </mxGeometry>
        </mxCell>
        <mxCell id="SJhDcYYH-gm3UErSaV7a-155" value="" style="endArrow=none;html=1;rounded=0;entryX=0;entryY=0.5;entryDx=0;entryDy=0;exitX=1;exitY=0.5;exitDx=0;exitDy=0;" parent="1" source="SJhDcYYH-gm3UErSaV7a-146" target="SJhDcYYH-gm3UErSaV7a-147" edge="1">
          <mxGeometry width="50" height="50" relative="1" as="geometry">
            <mxPoint x="770" y="1570" as="sourcePoint" />
            <mxPoint x="820" y="1520" as="targetPoint" />
          </mxGeometry>
        </mxCell>
        <mxCell id="SJhDcYYH-gm3UErSaV7a-156" value="" style="endArrow=none;html=1;rounded=0;entryX=0;entryY=0.5;entryDx=0;entryDy=0;exitX=0.633;exitY=0.938;exitDx=0;exitDy=0;exitPerimeter=0;" parent="1" source="SJhDcYYH-gm3UErSaV7a-146" target="SJhDcYYH-gm3UErSaV7a-148" edge="1">
          <mxGeometry width="50" height="50" relative="1" as="geometry">
            <mxPoint x="820" y="1670" as="sourcePoint" />
            <mxPoint x="870" y="1620" as="targetPoint" />
          </mxGeometry>
        </mxCell>
      </root>
    </mxGraphModel>
  </diagram>
</mxfile>
